<svg id="Layer_2" data-name="Layer 2" xmlns="http://www.w3.org/2000/svg" width="25" height="25" viewBox="0 0 25 25">
  <g id="Layer_1" data-name="Layer 1">
    <g id="available">
      <path id="Path_4" data-name="Path 4" d="M21.05,3.58c-.71-1.33-3.22-.53-9.23-.78C7.21,2.61,5.4,2,4.58,3.12s0,3.06.68,4.38a17.4,17.4,0,0,1,1,3.71,26.34,26.34,0,0,1,.14,5.45c-.09,1.24-.18,1.48,0,1.82.61,1,2.28.55,6.13.47,4-.09,5.28.32,5.95-.61.42-.59,0-.91,0-3.53A19.7,19.7,0,0,1,19,9.88a15.38,15.38,0,0,1,.92-2.65C21.43,5.1,21.32,4.09,21.05,3.58Z" fill="#7c8278"/>
      <g id="Path_5" data-name="Path 5">
        <path id="Path_291" data-name="Path 291" d="M23.2,8A2.1,2.1,0,0,0,22,7.22V3a1.71,1.71,0,0,0-.5-1.17,1.73,1.73,0,0,0-1.2-.49H4.73a1.64,1.64,0,0,0-.65.13,1.73,1.73,0,0,0-.54.35,1.76,1.76,0,0,0-.36.54A1.72,1.72,0,0,0,3.06,3V7.2a2.17,2.17,0,0,0-1.24.71,2.07,2.07,0,0,0-.48,1.33V19.82A2,2,0,0,0,1.74,21a2.1,2.1,0,0,0,1.07.76,2,2,0,0,0,.67,1.32,2.06,2.06,0,0,0,1.4.54H19.94a2.07,2.07,0,0,0,1.37-.53A2,2,0,0,0,22,21.85h0a2.12,2.12,0,0,0,1.2-.73,2,2,0,0,0,.47-1.3V9.25A2.06,2.06,0,0,0,23.2,8ZM3.79,3a1,1,0,0,1,.27-.66,1,1,0,0,1,.67-.28H20.32a.94.94,0,0,1,.37.07.9.9,0,0,1,.3.21.75.75,0,0,1,.2.3.92.92,0,0,1,.07.36V7.19a2.13,2.13,0,0,0-1.27.7,2.06,2.06,0,0,0-.5,1.34V19.5h-14V9.25a2,2,0,0,0-1.67-2ZM2.86,21.08a1.49,1.49,0,0,1-.59-.52,1.39,1.39,0,0,1-.22-.74V9.25a1.29,1.29,0,0,1,.39-.93,1.37,1.37,0,0,1,1.9,0,1.29,1.29,0,0,1,.39.93V19.54A2.18,2.18,0,0,0,3.54,20a2.1,2.1,0,0,0-.68,1.08Zm18.08,1.45h0a1.37,1.37,0,0,1-1,.4H4.88a1.4,1.4,0,0,1-1-.39,1.32,1.32,0,0,1,0-1.87h0a1.4,1.4,0,0,1,1-.39H19.94a1.4,1.4,0,0,1,1,.39,1.33,1.33,0,0,1,0,1.86Zm2-13.28V19.84a1.34,1.34,0,0,1-.27.81,1.38,1.38,0,0,1-.69.49,2.09,2.09,0,0,0-.62-1,2.18,2.18,0,0,0-1.1-.53V9.25a1.34,1.34,0,0,1,2.28-.95h0a1.33,1.33,0,0,1,.39.94Z" fill="none"/>
        <path id="Path_292" data-name="Path 292" d="M20.91,20.66a1.35,1.35,0,0,0-1-.4H4.88a1.37,1.37,0,0,0-1,.4,1.32,1.32,0,0,0,0,1.89,1.4,1.4,0,0,0,1,.39H19.94a1.39,1.39,0,0,0,1-.39,1.32,1.32,0,0,0,0-1.89Zm.28-18a.75.75,0,0,0-.2-.3.9.9,0,0,0-.3-.21.94.94,0,0,0-.37-.07H4.73a1,1,0,0,0-.67.28A1,1,0,0,0,3.79,3V7.22A2.09,2.09,0,0,1,5,7.93a2,2,0,0,1,.45,1.32V19.49h14V9.23A2.06,2.06,0,0,1,20,7.89a2.18,2.18,0,0,1,1.27-.7V3a.92.92,0,0,0-.08-.36ZM19.92,6.25A3.61,3.61,0,0,0,19,7a3.36,3.36,0,0,0-.83,2.22v8.93H6.8V9.27A3.31,3.31,0,0,0,6,7.08a3.22,3.22,0,0,0-.91-.77V3.4H19.92Zm1,14.41a1.35,1.35,0,0,0-1-.4H4.88a1.37,1.37,0,0,0-1,.4,1.32,1.32,0,0,0,0,1.89,1.4,1.4,0,0,0,1,.39H19.94a1.39,1.39,0,0,0,1-.39,1.32,1.32,0,0,0,0-1.89Zm.28-18a.75.75,0,0,0-.2-.3.9.9,0,0,0-.3-.21.94.94,0,0,0-.37-.07H4.73a1,1,0,0,0-.67.28A1,1,0,0,0,3.79,3V7.22A2.09,2.09,0,0,1,5,7.93a2,2,0,0,1,.45,1.32V19.49h14V9.23A2.06,2.06,0,0,1,20,7.89a2.18,2.18,0,0,1,1.27-.7V3a.92.92,0,0,0-.08-.36ZM19.92,6.25A3.61,3.61,0,0,0,19,7a3.36,3.36,0,0,0-.83,2.22v8.93H6.8V9.27A3.31,3.31,0,0,0,6,7.08a3.22,3.22,0,0,0-.91-.77V3.4H19.92Zm1,14.41a1.35,1.35,0,0,0-1-.4H4.88a1.37,1.37,0,0,0-1,.4,1.32,1.32,0,0,0,0,1.89,1.4,1.4,0,0,0,1,.39H19.94a1.39,1.39,0,0,0,1-.39,1.32,1.32,0,0,0,0-1.89Zm.28-18a.75.75,0,0,0-.2-.3.9.9,0,0,0-.3-.21.94.94,0,0,0-.37-.07H4.73a1,1,0,0,0-.67.28A1,1,0,0,0,3.79,3V7.22A2.09,2.09,0,0,1,5,7.93a2,2,0,0,1,.45,1.32V19.49h14V9.23A2.06,2.06,0,0,1,20,7.89a2.18,2.18,0,0,1,1.27-.7V3a.92.92,0,0,0-.08-.36ZM19.92,6.25A3.61,3.61,0,0,0,19,7a3.36,3.36,0,0,0-.83,2.22v8.93H6.8V9.27A3.31,3.31,0,0,0,6,7.08a3.22,3.22,0,0,0-.91-.77V3.4H19.92ZM5,7.93a2,2,0,0,1,.45,1.32V19.49h14V9.23A2.06,2.06,0,0,1,20,7.89a2.18,2.18,0,0,1,1.27-.7V3a.92.92,0,0,0-.07-.36.75.75,0,0,0-.2-.3.9.9,0,0,0-.3-.21.94.94,0,0,0-.37-.07H4.73a1,1,0,0,0-.67.28A1,1,0,0,0,3.79,3V7.22A2.09,2.09,0,0,1,5,7.93ZM5.13,3.4H19.92V6.25A3.61,3.61,0,0,0,19,7a3.36,3.36,0,0,0-.83,2.22v8.93H6.8V9.27A3.31,3.31,0,0,0,6,7.08a3.22,3.22,0,0,0-.91-.77ZM20.91,20.66a1.35,1.35,0,0,0-1-.4H4.88a1.37,1.37,0,0,0-1,.4,1.32,1.32,0,0,0,0,1.89,1.4,1.4,0,0,0,1,.39H19.94a1.39,1.39,0,0,0,1-.39,1.32,1.32,0,0,0,0-1.89ZM24.24,7.11a3.63,3.63,0,0,0-.88-.78V3A3,3,0,0,0,22.45.88,3,3,0,0,0,20.34,0H4.72a3.01,3.01,0,0,0-3,3V6.27A3.42,3.42,0,0,0,0,9.23V19.81a3.45,3.45,0,0,0,1.65,2.93A3.43,3.43,0,0,0,4.88,25H20a3.42,3.42,0,0,0,3.13-2.13,3.52,3.52,0,0,0,1.13-.9A3.39,3.39,0,0,0,25,19.82V9.25a3.43,3.43,0,0,0-.76-2.14Zm-.58,12.71a2,2,0,0,1-.47,1.3,2.09,2.09,0,0,1-1.2.73,2,2,0,0,1-.68,1.28,2.07,2.07,0,0,1-1.37.53H4.88a2.06,2.06,0,0,1-1.4-.54,2,2,0,0,1-.67-1.32A2.1,2.1,0,0,1,1.74,21a2,2,0,0,1-.4-1.22V9.23A2.07,2.07,0,0,1,1.82,7.9a2.14,2.14,0,0,1,1.24-.71V3a1.68,1.68,0,0,1,.12-.63,1.51,1.51,0,0,1,.36-.54,1.51,1.51,0,0,1,.54-.36,1.64,1.64,0,0,1,.65-.13H20.32a1.73,1.73,0,0,1,1.2.49A1.71,1.71,0,0,1,22,3V7.22a2.08,2.08,0,0,1,1.64,2ZM5,7.93a2,2,0,0,1,.45,1.32V19.49h14V9.23A2.06,2.06,0,0,1,20,7.89a2.18,2.18,0,0,1,1.27-.7V3a.92.92,0,0,0-.07-.36.75.75,0,0,0-.2-.3.9.9,0,0,0-.3-.21.94.94,0,0,0-.37-.07H4.73a1,1,0,0,0-.67.28A1,1,0,0,0,3.79,3V7.22A2.09,2.09,0,0,1,5,7.93ZM5.13,3.4H19.92V6.25A3.61,3.61,0,0,0,19,7a3.36,3.36,0,0,0-.83,2.22v8.93H6.8V9.27A3.31,3.31,0,0,0,6,7.08a3.22,3.22,0,0,0-.91-.77ZM19.94,20.26H4.88a1.37,1.37,0,0,0-1,.4,1.32,1.32,0,0,0,0,1.89,1.4,1.4,0,0,0,1,.39H19.94a1.39,1.39,0,0,0,1-.39,1.32,1.32,0,0,0,0-1.89,1.35,1.35,0,0,0-1-.4Z"/>
      </g>
    </g>
  </g>
</svg>
