<svg xmlns="http://www.w3.org/2000/svg" width="28" height="28" viewBox="0 0 28 28">
  <g id="double-b" transform="translate(1.5 1.5)" fill="none">
    <path d="M23.132,22.973a2.381,2.381,0,0,0,1.344-.815A2.3,2.3,0,0,0,25,20.695V8.861a2.3,2.3,0,0,0-.513-1.455,2.379,2.379,0,0,0-1.327-.823V1.861A1.865,1.865,0,0,0,22.6.551,1.937,1.937,0,0,0,21.263,0H3.794a1.9,1.9,0,0,0-.721.143,1.875,1.875,0,0,0-.609.4,1.835,1.835,0,0,0-.4.6,1.807,1.807,0,0,0-.135.709V6.556A2.354,2.354,0,0,0,.54,7.351,2.274,2.274,0,0,0,0,8.833V20.695A2.289,2.289,0,0,0,.451,22.07a2.361,2.361,0,0,0,1.193.847A2.276,2.276,0,0,0,2.393,24.4a2.361,2.361,0,0,0,1.572.6H20.838a2.372,2.372,0,0,0,1.534-.592,2.289,2.289,0,0,0,.759-1.436ZM24.179,8.861V20.723a1.482,1.482,0,0,1-.295.9,1.529,1.529,0,0,1-.781.548,2.306,2.306,0,0,0-.692-1.162,2.378,2.378,0,0,0-1.233-.588V8.861a1.473,1.473,0,0,1,.435-1.055,1.5,1.5,0,0,1,2.133,0,1.473,1.473,0,0,1,.434,1.054ZM2.746,6.584V1.861a1.039,1.039,0,0,1,.3-.739A1.079,1.079,0,0,1,3.794.805H21.263a1.069,1.069,0,0,1,.407.082,1.053,1.053,0,0,1,.343.23,1.031,1.031,0,0,1,.225.342,1.013,1.013,0,0,1,.073.4V6.556a2.358,2.358,0,0,0-1.42.779,2.276,2.276,0,0,0-.562,1.5v11.5H4.615V8.861a2.226,2.226,0,0,0-.507-1.477,2.3,2.3,0,0,0-1.362-.8ZM.793,20.695V8.861a1.459,1.459,0,0,1,.44-1.042,1.522,1.522,0,0,1,2.123,0A1.459,1.459,0,0,1,3.8,8.861V20.389a2.348,2.348,0,0,0-1.332.525A2.274,2.274,0,0,0,1.7,22.108a1.617,1.617,0,0,1-.657-.581,1.575,1.575,0,0,1-.25-.832Zm3.17,3.5a1.544,1.544,0,0,1-1.081-.439,1.48,1.48,0,0,1,0-2.122A1.544,1.544,0,0,1,3.962,21.2H20.838a1.544,1.544,0,0,1,1.081.439,1.48,1.48,0,0,1,0,2.122,1.544,1.544,0,0,1-1.081.439Z" stroke="none"/>
    <path d="M 20.83829879760742 25 C 21.40579986572266 24.99130058288574 21.9507999420166 24.78109931945801 22.37249946594238 24.40839958190918 C 22.79409980773926 24.03560066223145 23.06369972229004 23.52560043334961 23.13149833679199 22.97270011901855 C 23.66119956970215 22.85950088500977 24.13539886474609 22.57169914245605 24.47529983520508 22.15740013122559 C 24.81529998779297 21.74300003051758 25.00039863586426 21.22690010070801 25 20.69499969482422 L 25 8.86122989654541 C 25.00199890136719 8.333089828491211 24.82099914550781 7.819960117340088 24.48659896850586 7.406079769134521 C 24.15219879150391 6.992189884185791 23.68439865112305 6.70212984085083 23.15979957580566 6.583509922027588 L 23.15979957580566 1.861129999160767 C 23.15419960021973 1.369240045547485 22.95249938964844 0.8990600109100342 22.59799957275391 0.5512300133705139 C 22.24349975585938 0.2033900022506714 21.7642993927002 0.005530000198632479 21.26289939880371 -1.77635683940025e-15 L 3.793828964233398 -1.77635683940025e-15 C 3.546199083328247 0.0005200000014156103 3.301139116287231 0.0492199994623661 3.072829008102417 0.1432799994945526 C 2.844519138336182 0.2373400032520294 2.637479066848755 0.374889999628067 2.463709115982056 0.547980010509491 C 2.289929151535034 0.7210599780082703 2.152868986129761 0.9262400269508362 2.060449123382568 1.151640057563782 C 1.968039035797119 1.377050042152405 1.922099113464355 1.618190050125122 1.925299048423767 1.861129999160767 L 1.925299048423767 6.555689811706543 C 1.382589101791382 6.652520179748535 0.8920490741729736 6.933969974517822 0.5399290919303894 7.350560188293457 C 0.1877990812063217 7.767149925231934 -0.003360923379659653 8.292200088500977 4.90765378344804e-05 8.833399772644043 L 4.90765378344804e-05 20.69499969482422 C -0.002730923471972346 21.18869972229004 0.1551590710878372 21.6702995300293 0.4507190883159637 22.06979942321777 C 0.746289074420929 22.46940040588379 1.164109110832214 22.76589965820312 1.643349051475525 22.91629981994629 C 1.696139097213745 23.48489952087402 1.963419079780579 24.0137996673584 2.392829179763794 24.39920043945312 C 2.82223916053772 24.78459930419922 3.38283896446228 24.99889945983887 3.964828968048096 25 L 20.83829879760742 25 M 3.962329149246216 21.19510078430176 L 20.83829879760742 21.19510078430176 C 21.24389839172363 21.19510078430176 21.63279914855957 21.35309982299805 21.91949844360352 21.63450050354004 C 22.206298828125 21.91580009460449 22.36739921569824 22.29739952087402 22.36739921569824 22.69529914855957 C 22.36739921569824 23.09320068359375 22.206298828125 23.47470092773438 21.91949844360352 23.75609970092773 C 21.63279914855957 24.03739929199219 21.24389839172363 24.19549942016602 20.83829879760742 24.19549942016602 L 3.962329149246216 24.19549942016602 C 3.556809186935425 24.19549942016602 3.16788911819458 24.03739929199219 2.881149053573608 23.75609970092773 C 2.594398975372314 23.47470092773438 2.43329906463623 23.09320068359375 2.43329906463623 22.69529914855957 C 2.43329906463623 22.29739952087402 2.594398975372314 21.91580009460449 2.881149053573608 21.63450050354004 C 3.16788911819458 21.35309982299805 3.556809186935425 21.19510078430176 3.962329149246216 21.19510078430176 M 22.67929840087891 7.361030101776123 C 23.0807991027832 7.365349769592285 23.46419906616211 7.525700092315674 23.74529838562012 7.806930065155029 C 24.02649879455566 8.088159561157227 24.18249893188477 8.467300415039062 24.17919921875 8.86122989654541 L 24.17919921875 20.72279930114746 C 24.18159866333008 21.04509925842285 24.07829856872559 21.35950088500977 23.88449859619141 21.61960029602051 C 23.69069862365723 21.87980079650879 23.41669845581055 22.07180023193359 23.10309982299805 22.16740036010742 C 22.99479866027832 21.72150039672852 22.75399971008301 21.31719970703125 22.41119956970215 21.00569915771484 C 22.0684986114502 20.69420051574707 21.63919830322266 20.48950004577637 21.17779922485352 20.41760063171387 L 21.17779922485352 8.86122989654541 C 21.17449951171875 8.467020034790039 21.3306999206543 8.087630271911621 21.6122989654541 7.806359767913818 C 21.893798828125 7.52508020401001 22.2775993347168 7.364920139312744 22.67929840087891 7.361030101776123 M 2.293999195098877 7.388040065765381 C 2.692219018936157 7.388040065765381 3.074129104614258 7.54325008392334 3.355719089508057 7.819519996643066 C 3.637299060821533 8.095800399780273 3.795499086380005 8.47050952911377 3.795499086380005 8.86122989654541 L 3.795499086380005 20.38890075683594 C 3.305989027023315 20.42160034179688 2.839599132537842 20.60549926757812 2.463179111480713 20.9143009185791 C 2.086749076843262 21.22299957275391 1.819619059562683 21.64080047607422 1.700069069862366 22.10759925842285 C 1.430809020996094 21.97719955444336 1.203589081764221 21.77619934082031 1.043559074401855 21.52689933776855 C 0.8835290670394897 21.27750015258789 0.7969290614128113 20.98959922790527 0.7933390736579895 20.69499969482422 L 0.7924990653991699 20.69499969482422 L 0.7924990653991699 8.86122989654541 C 0.7924990653991699 8.47050952911377 0.9506990909576416 8.095800399780273 1.232279062271118 7.819519996643066 C 1.513869047164917 7.54325008392334 1.895779132843018 7.388040065765381 2.293999195098877 7.388040065765381 M 3.793828964233398 0.8053399920463562 L 21.26289939880371 0.8053399920463562 C 21.40279960632324 0.8058500289916992 21.54109954833984 0.8337100148200989 21.6697998046875 0.8873000144958496 C 21.79859924316406 0.9408800005912781 21.91509819030762 1.01911997795105 22.01269912719727 1.117429971694946 C 22.11019897460938 1.215729951858521 22.18680000305176 1.33213996887207 22.23799896240234 1.459840059280396 C 22.28919982910156 1.587530016899109 22.31389999389648 1.723960041999817 22.31059837341309 1.861129999160767 L 22.31059837341309 6.555689811706543 C 21.75769996643066 6.640999794006348 21.25399971008301 6.917449951171875 20.89059829711914 7.335130214691162 C 20.527099609375 7.752810001373291 20.32779884338379 8.284199714660645 20.32869911193848 8.833399772644043 L 20.32869911193848 20.3341007232666 L 4.615478992462158 20.3341007232666 L 4.615478992462158 8.86122989654541 C 4.630918979644775 8.325460433959961 4.451199054718018 7.801849842071533 4.108589172363281 7.384389877319336 C 3.765969038009644 6.966929912567139 3.282899141311646 6.682980060577393 2.746119022369385 6.583509922027588 L 2.746119022369385 1.861129999160767 C 2.744309186935425 1.585369944572449 2.853209018707275 1.320000052452087 3.049278974533081 1.122419953346252 C 3.245349168777466 0.9248300194740295 3.512819051742554 0.8109300136566162 3.793828964233398 0.8053399920463562 M 20.84979820251465 26.5 L 3.964828968048096 26.5 C 3.00934910774231 26.49819946289062 2.096259117126465 26.14856910705566 1.390919089317322 25.5155200958252 C 0.9152622222900391 25.08861541748047 0.5606950521469116 24.55720138549805 0.3513830006122589 23.96919059753418 C -0.07772304117679596 23.71112823486328 -0.4524352252483368 23.37118530273438 -0.7552409172058105 22.96179962158203 C -1.23920202255249 22.30764961242676 -1.503628134727478 21.50116539001465 -1.499950885772705 20.69057655334473 L -1.499950885772705 8.83745002746582 C -1.504300236701965 7.941545486450195 -1.18681800365448 7.0697922706604 -0.6056509017944336 6.382239818572998 C -0.3140070140361786 6.037192821502686 0.03601676970720291 5.748302459716797 0.4252990782260895 5.526556015014648 L 0.4252990782260895 1.869517087936401 C 0.4209568798542023 1.426384568214417 0.5041301250457764 0.9934846758842468 0.6725490689277649 0.5826500058174133 C 0.8416990637779236 0.1701299995183945 1.088179111480713 -0.1990900039672852 1.405189037322998 -0.5148199796676636 C 1.720049023628235 -0.8284400105476379 2.0888991355896 -1.073670029640198 2.501449108123779 -1.243630051612854 C 2.912089109420776 -1.41280996799469 3.34584903717041 -1.499060034751892 3.790678977966309 -1.5 L 21.27943992614746 -1.499909996986389 C 22.17285919189453 -1.490059971809387 23.01422882080078 -1.141849994659424 23.6485595703125 -0.5194399952888489 C 24.29041862487793 0.1103399991989136 24.6495189666748 0.949720025062561 24.65969848632812 1.844050049781799 L 24.65979957580566 1.861129999160767 L 24.65979957580566 5.594797134399414 C 25.0369987487793 5.82481861114502 25.37454986572266 6.118300437927246 25.65336990356445 6.463399887084961 C 26.20193862915039 7.142350196838379 26.50254440307617 7.99464225769043 26.5 8.863679885864258 L 26.5 20.69499969482422 C 26.50065994262695 21.57047080993652 26.19343948364258 22.42811965942383 25.63493919372559 23.10884094238281 C 25.28949928283691 23.52989387512207 24.8567008972168 23.87224769592285 24.37135314941406 24.11474609375 C 24.15267181396484 24.65324211120605 23.81048583984375 25.13917541503906 23.36612892150879 25.53210067749023 C 22.67598915100098 26.14204978942871 21.78652000427246 26.48563957214355 20.86128997802734 26.49982070922852 L 20.84979820251465 26.5 Z M 3.957483291625977 22.69529342651367 C 3.959060192108154 22.6954288482666 3.960677146911621 22.69549942016602 3.962329149246216 22.69549942016602 L 20.83829879760742 22.69549942016602 C 20.83995819091797 22.69549942016602 20.84158134460449 22.6954288482666 20.84316253662109 22.6952953338623 C 20.84160041809082 22.69516944885254 20.83998107910156 22.69510078430176 20.83829879760742 22.69510078430176 L 3.962329149246216 22.69510078430176 C 3.960654735565186 22.69510078430176 3.959039211273193 22.69516754150391 3.957483291625977 22.69529342651367 Z M 22.67779922485352 19.36611938476562 C 22.6782398223877 19.36636161804199 22.67875671386719 19.36664581298828 22.67919921875 19.36688804626465 L 22.67919921875 8.864246368408203 C 22.67878150939941 8.864059448242188 22.67829704284668 8.864021301269531 22.67779922485352 8.864239692687988 L 22.67779922485352 19.36611938476562 Z M 2.29249906539917 8.888076782226562 L 2.29249906539917 19.25765800476074 C 2.293500185012817 19.25717926025391 2.294497728347778 19.25670433044434 2.295499086380005 19.25622749328613 L 2.295499086380005 8.888076782226562 C 2.294527053833008 8.888030052185059 2.293471097946167 8.888030052185059 2.29249906539917 8.888076782226562 Z M 6.115478992462158 18.8341007232666 L 18.82869911193848 18.8341007232666 L 18.82869911193848 8.833399772644043 C 18.82720947265625 7.924200057983398 19.15762901306152 7.041510105133057 19.75908851623535 6.350399971008301 C 20.05811882019043 6.006704807281494 20.41500854492188 5.721233367919922 20.81059837341309 5.504526138305664 L 20.81059837341309 2.305340051651001 L 4.246119022369385 2.305340051651001 L 4.246119022369385 5.563582897186279 C 4.633720874786377 5.789200782775879 4.980754852294922 6.082687377929688 5.268079280853271 6.432769775390625 C 5.834823131561279 7.123325347900391 6.135253429412842 7.991558074951172 6.115478992462158 8.880127906799316 L 6.115478992462158 18.8341007232666 Z" stroke="none" fill="#000"/>
  </g>
</svg>
