<svg xmlns="http://www.w3.org/2000/svg" width="25" height="25" viewBox="0 0 25 25">
  <path id="single-b" d="M23.132,22.973a2.381,2.381,0,0,0,1.344-.815A2.3,2.3,0,0,0,25,20.695V8.861a2.3,2.3,0,0,0-.513-1.455,2.379,2.379,0,0,0-1.327-.823V1.861A1.865,1.865,0,0,0,22.6.551,1.937,1.937,0,0,0,21.263,0H3.794a1.9,1.9,0,0,0-.721.143,1.875,1.875,0,0,0-.609.4,1.835,1.835,0,0,0-.4.6,1.807,1.807,0,0,0-.135.709V6.556A2.354,2.354,0,0,0,.54,7.351,2.274,2.274,0,0,0,0,8.833V20.695A2.289,2.289,0,0,0,.451,22.07a2.361,2.361,0,0,0,1.193.847A2.276,2.276,0,0,0,2.393,24.4a2.361,2.361,0,0,0,1.572.6H20.838a2.372,2.372,0,0,0,1.534-.592,2.289,2.289,0,0,0,.759-1.436ZM24.179,8.861V20.723a1.482,1.482,0,0,1-.295.9,1.529,1.529,0,0,1-.781.548,2.306,2.306,0,0,0-.692-1.162,2.378,2.378,0,0,0-1.233-.588V8.861a1.473,1.473,0,0,1,.435-1.055,1.5,1.5,0,0,1,2.133,0,1.473,1.473,0,0,1,.434,1.054ZM2.746,6.584V1.861a1.039,1.039,0,0,1,.3-.739A1.079,1.079,0,0,1,3.794.805H21.263a1.069,1.069,0,0,1,.407.082,1.053,1.053,0,0,1,.343.23,1.031,1.031,0,0,1,.225.342,1.013,1.013,0,0,1,.073.4V6.556a2.358,2.358,0,0,0-1.42.779,2.276,2.276,0,0,0-.562,1.5v11.5H4.615V8.861a2.226,2.226,0,0,0-.507-1.477,2.3,2.3,0,0,0-1.362-.8ZM.793,20.695V8.861a1.459,1.459,0,0,1,.44-1.042,1.522,1.522,0,0,1,2.123,0A1.459,1.459,0,0,1,3.8,8.861V20.389a2.348,2.348,0,0,0-1.332.525A2.274,2.274,0,0,0,1.7,22.108a1.617,1.617,0,0,1-.657-.581,1.575,1.575,0,0,1-.25-.832Zm3.17,3.5a1.544,1.544,0,0,1-1.081-.439,1.48,1.48,0,0,1,0-2.122A1.544,1.544,0,0,1,3.962,21.2H20.838a1.544,1.544,0,0,1,1.081.439,1.48,1.48,0,0,1,0,2.122,1.544,1.544,0,0,1-1.081.439Z"/>
</svg>
